<svg id="Pfeil" xmlns="http://www.w3.org/2000/svg" width="37" height="43" viewBox="0 0 37 43">
  <g id="Pfeil-2" data-name="Pfeil" transform="translate(37) rotate(90)">
    <g id="Polygon_4" data-name="Polygon 4" transform="translate(43 37) rotate(180)">
      <path d="M 32.57409286499023 36 L 10.42591381072998 36 C 8.61540412902832 36 6.995353698730469 35.06315994262695 6.092293739318848 33.49393844604492 C 5.189223766326904 31.92473983764648 5.193153858184814 30.05331802368164 6.102773666381836 28.48791885375977 L 17.1768741607666 9.430178642272949 C 18.0820484161377 7.872424125671387 19.69833755493164 6.942268848419189 21.49997520446777 6.942268848419189 C 21.50008392333984 6.942268848419189 21.49989318847656 6.942268848419189 21.50000381469727 6.942268848419189 C 23.3017635345459 6.942258834838867 24.91789436340332 7.872328758239746 25.82313346862793 9.430178642272949 L 36.89721298217773 28.48791885375977 C 37.80684280395508 30.05332946777344 37.81077194213867 31.92473983764648 36.9077033996582 33.49394989013672 C 36.00464248657227 35.06315994262695 34.38460540771484 36 32.57409286499023 36 Z" stroke="none"/>
      <path d="M 21.49999237060547 7.9422607421875 C 20.0585823059082 7.9422607421875 18.76568222045898 8.686309814453125 18.0414924621582 9.932590484619141 L 6.967411041259766 28.9903392791748 C 6.239711761474609 30.2426586151123 6.236572265625 31.73978805541992 6.959022521972656 32.99515914916992 C 7.681472778320312 34.25053024291992 8.977500915527344 35 10.42591094970703 35 L 32.57409286499023 35 C 34.02250289916992 35 35.31853103637695 34.25053024291992 36.04098129272461 32.99515914916992 C 36.76343154907227 31.73978805541992 36.76029205322266 30.2426586151123 36.0325927734375 28.99032974243164 L 24.9585018157959 9.932598114013672 C 24.23430252075195 8.686309814453125 22.94140243530273 7.9422607421875 21.49999237060547 7.9422607421875 M 21.49999618530273 5.942264556884766 C 23.51560211181641 5.942264556884766 25.53120613098145 6.937427520751953 26.68775177001953 8.927757263183594 L 37.7618408203125 27.98549842834473 C 40.08615112304688 31.98546981811523 37.20034027099609 37 32.57409286499023 37 L 10.42591094970703 37 C 5.799652099609375 37 2.913852691650391 31.98546981811523 5.238162994384766 27.98549842834473 L 16.31224250793457 8.927757263183594 C 17.46878623962402 6.937427520751953 19.4843921661377 5.942264556884766 21.49999618530273 5.942264556884766 Z" stroke="none" fill="#ffe600"/>
    </g>
  </g>
</svg>
