<?xml version="1.0" encoding="utf-8"?>
<!-- Generator: Adobe Illustrator 28.0.0, SVG Export Plug-In . SVG Version: 6.00 Build 0)  -->
<svg version="1.1"
	 id="svg3070" xmlns:inkscape="http://www.inkscape.org/namespaces/inkscape" xmlns:svg="http://www.w3.org/2000/svg" xmlns:rdf="http://www.w3.org/1999/02/22-rdf-syntax-ns#" xmlns:sodipodi="http://sodipodi.sourceforge.net/DTD/sodipodi-0.dtd" xmlns:cc="http://creativecommons.org/ns#" xmlns:dc="http://purl.org/dc/elements/1.1/" inkscape:version="0.48.0 r9654" sodipodi:docname="New document 4"
	 xmlns="http://www.w3.org/2000/svg" xmlns:xlink="http://www.w3.org/1999/xlink" x="0px" y="0px" viewBox="0 0 79.6 79.5"
	 style="enable-background:new 0 0 79.6 79.5;" xml:space="preserve">
<style type="text/css">
	.st0{fill:#E6FF00;}
</style>
<sodipodi:namedview  bordercolor="#666666" borderopacity="1.0" fit-margin-bottom="0" fit-margin-left="0" fit-margin-right="0" fit-margin-top="0" id="base" inkscape:current-layer="layer1" inkscape:cx="142.93233" inkscape:cy="33.703355" inkscape:document-units="px" inkscape:pageopacity="0.0" inkscape:pageshadow="2" inkscape:window-height="750" inkscape:window-maximized="1" inkscape:window-width="1280" inkscape:window-x="-8" inkscape:window-y="-8" inkscape:zoom="2.8" pagecolor="#ffffff" showgrid="false">
	</sodipodi:namedview>
<g id="layer1" transform="translate(-200.55198,-393.96227)" inkscape:groupmode="layer" inkscape:label="Layer 1">
	<g>
		<path class="st0" d="M243.8,430.1V430C243.8,430.1,243.7,430.1,243.8,430.1L243.8,430.1z"/>
		<path class="st0" d="M273.2,395.7h-64.6c-3.1,0-5.6,2.4-5.6,5.5v65.3c0,3,2.5,5.5,5.6,5.5h64.6c3.1,0,5.6-2.4,5.6-5.5v-65.3
			C278.8,398.2,276.3,395.7,273.2,395.7z M226,459.6h-11.4v-34.4H226V459.6z M220.3,420.4L220.3,420.4L220.3,420.4
			c-3.9,0-6.4-2.6-6.4-5.9c0-3.4,2.6-5.9,6.5-5.9c3.9,0,6.3,2.6,6.4,5.9C226.8,417.8,224.3,420.4,220.3,420.4z M267.3,459.6h-11.4
			v-18.4c0-4.6-1.7-7.8-5.8-7.8c-3.2,0-5,2.1-5.9,4.2c-0.3,0.7-0.4,1.8-0.4,2.8v19.2h-11.4c0,0,0.2-31.2,0-34.4h11.4v4.9
			c1.5-2.3,4.2-5.7,10.3-5.7c7.5,0,13.2,4.9,13.2,15.5V459.6z"/>
	</g>
</g>
</svg>
