<?xml version="1.0" encoding="utf-8"?>
<!-- Generator: Adobe Illustrator 28.0.0, SVG Export Plug-In . SVG Version: 6.00 Build 0)  -->
<svg version="1.1" id="Ebene_2" xmlns="http://www.w3.org/2000/svg" xmlns:xlink="http://www.w3.org/1999/xlink" x="0px" y="0px"
	 viewBox="0 0 500 500" style="enable-background:new 0 0 500 500;" xml:space="preserve">
<style type="text/css">
	.st0{fill:none;stroke:#FFE600;stroke-width:2;stroke-miterlimit:10;}
</style>
<path class="st0" d="M133.3,239.7c0,0,2.1-88.7-10.5-102.7s-53.1-32.1-96.4-8.4s-13.3,192.1,8.4,231.9s81,43.3,116,18.2
	s72.7-131.3-2.8-136.9s-55.9,58.7-55.9,58.7"/>
<path class="st0" d="M128.2,157c0,0,75.6-35.4,95.2-20s19.6,69.9,19.6,69.9"/>
<path class="st0" d="M187.1,229.2c0,0,54.5-30.7,67.1-16.8c12.6,14,18.2,60.1,18.2,60.1"/>
<path class="st0" d="M230.4,301.9c0,0,44.7-72.7,102,16.8c43.2,67.5-76.8,99.2-127.1,79.6c-50.3-19.6-27.3-56.1-27.3-56.1"/>
<path class="st0" d="M234.6,153.8c0,0,118.8-53.1,136.9-34.9c18.2,18.2-21,40.5-5.6,64.3s98.6,62.6,116,117.4
	c18.2,57.3-37.7,106.2-67.1,54.5c-22.4-39.5-8.4-131.3-47.5-111.8s27.2,35.6,27.2,35.6"/>
<path class="st0" d="M341.5,343.1c0,0-8.4,40.5,39.1,44.7c48.8,4.3,47.5-18.2,47.5-18.2"/>
<path class="st0" d="M307.2,236.2l51.7-26.5c0,0-40.5-61.5-64.3-37.7S307.2,236.2,307.2,236.2z"/>
<path class="st0" d="M392.5,170.6c0,0-9.8-72.7,43.3-85.2s68.5,68.5,19.6,69.9C398,152.4,392.5,170.6,392.5,170.6z"/>
</svg>
